<svg width="18" height="19" viewBox="0 0 18 19"  xmlns="http://www.w3.org/2000/svg">
<path d="M16.008 0.86377H2.43659C1.3956 0.86377 0.585938 1.71198 0.585938 2.71442V16.2858C0.585938 17.3268 1.3956 18.1365 2.43659 18.1365H7.71865V12.2761H5.28967V9.50013H7.71865V7.41815C7.71865 5.02773 9.14519 3.6783 11.3043 3.6783C12.3838 3.6783 13.4634 3.87107 13.4634 3.87107V6.22294H12.2682C11.073 6.22294 10.6874 6.95549 10.6874 7.72659V9.50013H13.3477L12.9236 12.2761H10.6874V18.1365H16.008C17.0105 18.1365 17.8587 17.3268 17.8587 16.2858V2.71442C17.8587 1.71198 17.0105 0.86377 16.008 0.86377Z" fill="white"/>
</svg>
