<svg width="22" height="19" viewBox="0 0 22 19" xmlns="http://www.w3.org/2000/svg">
<path d="M19.6939 5.15074C20.5263 4.52642 21.2755 3.77724 21.8582 2.9032C21.109 3.23617 20.235 3.48589 19.3609 3.56914C20.2766 3.02806 20.9425 2.19564 21.2755 1.15512C20.4431 1.65457 19.4858 2.02916 18.5285 2.23726C17.6961 1.36322 16.5723 0.86377 15.3237 0.86377C12.9097 0.86377 10.9535 2.81996 10.9535 5.23398C10.9535 5.56695 10.9951 5.89991 11.0783 6.23288C7.45731 6.02478 4.21087 4.27669 2.04658 1.65457C1.67199 2.27888 1.46389 3.02806 1.46389 3.86048C1.46389 5.35884 2.21306 6.69071 3.42007 7.48151C2.71252 7.43989 2.00496 7.27341 1.42226 6.94044V6.98206C1.42226 9.10473 2.92062 10.8528 4.91843 11.269C4.58546 11.3523 4.16925 11.4355 3.79466 11.4355C3.50332 11.4355 3.25359 11.3939 2.96224 11.3523C3.50332 13.1004 5.12654 14.349 7.0411 14.3906C5.54275 15.556 3.6698 16.2636 1.63037 16.2636C1.25578 16.2636 0.922812 16.2219 0.589844 16.1803C2.50441 17.4289 4.79357 18.1365 7.29083 18.1365C15.3237 18.1365 19.6939 11.5188 19.6939 5.73343C19.6939 5.52533 19.6939 5.35884 19.6939 5.15074Z" fill="white"/>
</svg>
