<svg width="22" height="15" viewBox="0 0 22 15"  xmlns="http://www.w3.org/2000/svg">
<path d="M20.8819 2.76073C20.7646 2.34206 20.5359 1.96303 20.2204 1.66391C19.8959 1.35559 19.4982 1.13505 19.0648 1.02309C17.4429 0.595591 10.9449 0.595591 10.9449 0.595591C8.23598 0.56477 5.5277 0.700328 2.83538 1.0015C2.402 1.12173 2.00505 1.3472 1.67983 1.65786C1.36029 1.96532 1.12883 2.34445 1.00793 2.75986C0.717478 4.32455 0.576359 5.9133 0.586471 7.50468C0.576107 9.09464 0.71688 10.6829 1.00793 12.2495C1.12624 12.6632 1.35683 13.0406 1.67724 13.3455C1.99765 13.6503 2.39665 13.8705 2.83538 13.9871C4.47888 14.4138 10.9449 14.4138 10.9449 14.4138C13.6573 14.4446 16.369 14.3091 19.0648 14.0079C19.4982 13.8959 19.8959 13.6754 20.2204 13.367C20.5399 13.0622 20.7671 12.683 20.8811 12.2702C21.1791 10.7061 21.324 9.11674 21.3137 7.52455C21.3362 5.92561 21.1914 4.32958 20.8819 2.76073ZM8.87911 10.4618V4.54845L14.2855 7.50555L8.87911 10.4618Z" fill="white"/>
</svg>
